<svg width="81" height="41" viewBox="0 0 81 41" fill="none" xmlns="http://www.w3.org/2000/svg">
<g filter="url(#filter0_dd_638_167)">
<g filter="url(#filter1_d_638_167)">
<rect x="8" y="8" width="65" height="25" rx="8" fill="url(#paint0_linear_638_167)"/>
<rect x="8.5" y="8.5" width="64" height="24" rx="7.5" stroke="#FFC94F"/>
</g>
<path d="M19.5414 17.46V14.7C20.8414 14.66 22.3414 14.1 23.3214 13H26.3214V26H22.9214V16.68C22.0814 17.18 20.7214 17.42 19.5414 17.46ZM29.6305 26V22.74H33.2505V24.92C33.2505 26.98 32.2905 28.4 30.8505 29.14L29.6505 27.86C30.3505 27.38 30.8305 26.78 31.0305 26H29.6305ZM35.9884 26V23.52C38.3284 22.7 43.3284 19.92 43.3284 17.48C43.3284 16.46 42.5284 15.78 41.3284 15.78C40.1284 15.78 39.3484 16.54 39.1084 17.66H35.5884V16.82C36.2084 14.48 38.7684 12.62 41.5084 12.62C44.5284 12.62 46.7884 14.4 46.7884 17.08C46.7884 19.34 44.8284 21.44 42.3284 23.04H47.0884V26H35.9884ZM56.6483 26L54.6683 23.54H54.4083L52.5083 26H49.0483V25.36L52.4083 21.22V20.72L49.1483 16.64V16H52.7083L54.5683 18.32H54.8083L56.5883 16H60.0483V16.64L56.8283 20.66V21.14L60.2083 25.36V26H56.6483ZM52.6083 20.96L52.5883 20.94V21L52.6083 20.96ZM56.6283 20.9L56.6483 20.92V20.9H56.6283Z" fill="#4B2F0B"/>
</g>
<defs>
<filter id="filter0_dd_638_167" x="-3" y="0" width="86" height="41" filterUnits="userSpaceOnUse" color-interpolation-filters="sRGB">
<feFlood flood-opacity="0" result="BackgroundImageFix"/>
<feColorMatrix in="SourceAlpha" type="matrix" values="0 0 0 0 0 0 0 0 0 0 0 0 0 0 0 0 0 0 127 0" result="hardAlpha"/>
<feOffset/>
<feGaussianBlur stdDeviation="4"/>
<feComposite in2="hardAlpha" operator="out"/>
<feColorMatrix type="matrix" values="0 0 0 0 0.9 0 0 0 0 1 0 0 0 0 0 0 0 0 1 0"/>
<feBlend mode="plus-lighter" in2="BackgroundImageFix" result="effect1_dropShadow_638_167"/>
<feColorMatrix in="SourceAlpha" type="matrix" values="0 0 0 0 0 0 0 0 0 0 0 0 0 0 0 0 0 0 127 0" result="hardAlpha"/>
<feOffset/>
<feGaussianBlur stdDeviation="3.75"/>
<feComposite in2="hardAlpha" operator="out"/>
<feColorMatrix type="matrix" values="0 0 0 0 1 0 0 0 0 0.75 0 0 0 0 0 0 0 0 1 0"/>
<feBlend mode="plus-lighter" in2="effect1_dropShadow_638_167" result="effect2_dropShadow_638_167"/>
<feBlend mode="normal" in="SourceGraphic" in2="effect2_dropShadow_638_167" result="shape"/>
</filter>
<filter id="filter1_d_638_167" x="4" y="8" width="73" height="33" filterUnits="userSpaceOnUse" color-interpolation-filters="sRGB">
<feFlood flood-opacity="0" result="BackgroundImageFix"/>
<feColorMatrix in="SourceAlpha" type="matrix" values="0 0 0 0 0 0 0 0 0 0 0 0 0 0 0 0 0 0 127 0" result="hardAlpha"/>
<feOffset dy="4"/>
<feGaussianBlur stdDeviation="2"/>
<feComposite in2="hardAlpha" operator="out"/>
<feColorMatrix type="matrix" values="0 0 0 0 0 0 0 0 0 0 0 0 0 0 0 0 0 0 0.25 0"/>
<feBlend mode="normal" in2="BackgroundImageFix" result="effect1_dropShadow_638_167"/>
<feBlend mode="normal" in="SourceGraphic" in2="effect1_dropShadow_638_167" result="shape"/>
</filter>
<linearGradient id="paint0_linear_638_167" x1="32.1429" y1="-8.5" x2="26.774" y2="27.8929" gradientUnits="userSpaceOnUse">
<stop stop-color="#701904"/>
<stop offset="0.25" stop-color="#97480D"/>
<stop offset="0.480769" stop-color="#FFD141"/>
<stop offset="0.783654" stop-color="#DC7C11"/>
<stop offset="1" stop-color="#A5500E"/>
</linearGradient>
</defs>
</svg>
