<svg width="89" height="49" viewBox="0 0 89 49" fill="none" xmlns="http://www.w3.org/2000/svg">
<g filter="url(#filter0_dd_638_188)">
<g filter="url(#filter1_d_638_188)">
<rect x="12" y="12" width="65" height="25" rx="8" fill="url(#paint0_linear_638_188)"/>
<rect x="12.5" y="12.5" width="64" height="24" rx="7.5" stroke="#FFC94F"/>
</g>
<path d="M27.2932 30.24C23.5732 30.24 20.8332 27.58 20.8332 23.42C20.8332 19.26 23.5732 16.62 27.2932 16.62C30.9932 16.62 33.7532 19.26 33.7532 23.42C33.7532 27.58 30.9932 30.24 27.2932 30.24ZM27.2932 19.78C25.4732 19.78 24.2932 21.14 24.2932 23.42C24.2932 25.72 25.4732 27.08 27.2932 27.08C29.1132 27.08 30.2932 25.72 30.2932 23.42C30.2932 21.14 29.1132 19.78 27.2932 19.78ZM36.1598 30V26.74H39.7798V28.92C39.7798 30.98 38.8198 32.4 37.3798 33.14L36.1798 31.86C36.8798 31.38 37.3598 30.78 37.5598 30H36.1598ZM48.5177 30.24C45.5777 30.24 43.0177 28.52 42.2177 26.04V25.2H45.7377C46.0177 26.4 47.0377 27.08 48.5177 27.08C50.1977 27.08 51.1377 26.42 51.1377 25.28C51.1377 24.16 49.9577 23.5 48.1377 23.5C47.3177 23.5 46.5777 23.66 45.9777 23.92H42.9777L43.6977 17H53.6777V19.96H46.3177L46.2177 21C46.9577 20.82 47.7977 20.7 48.4577 20.7C52.1577 20.7 54.5977 22.56 54.5977 25.46C54.5977 28.38 52.0177 30.24 48.5177 30.24ZM64.0565 30L62.0765 27.54H61.8165L59.9165 30H56.4565V29.36L59.8165 25.22V24.72L56.5565 20.64V20H60.1165L61.9765 22.32H62.2165L63.9965 20H67.4565V20.64L64.2365 24.66V25.14L67.6165 29.36V30H64.0565ZM60.0165 24.96L59.9965 24.94V25L60.0165 24.96ZM64.0365 24.9L64.0565 24.92V24.9H64.0365Z" fill="#4B2F0B"/>
</g>
<defs>
<filter id="filter0_dd_638_188" x="-2.9" y="0.1" width="93.8" height="48.8" filterUnits="userSpaceOnUse" color-interpolation-filters="sRGB">
<feFlood flood-opacity="0" result="BackgroundImageFix"/>
<feColorMatrix in="SourceAlpha" type="matrix" values="0 0 0 0 0 0 0 0 0 0 0 0 0 0 0 0 0 0 127 0" result="hardAlpha"/>
<feOffset/>
<feGaussianBlur stdDeviation="5.95"/>
<feComposite in2="hardAlpha" operator="out"/>
<feColorMatrix type="matrix" values="0 0 0 0 0 0 0 0 0 0.633333 0 0 0 0 1 0 0 0 1 0"/>
<feBlend mode="plus-lighter" in2="BackgroundImageFix" result="effect1_dropShadow_638_188"/>
<feColorMatrix in="SourceAlpha" type="matrix" values="0 0 0 0 0 0 0 0 0 0 0 0 0 0 0 0 0 0 127 0" result="hardAlpha"/>
<feOffset/>
<feGaussianBlur stdDeviation="4.2"/>
<feComposite in2="hardAlpha" operator="out"/>
<feColorMatrix type="matrix" values="0 0 0 0 0 0 0 0 0 0.716667 0 0 0 0 1 0 0 0 1 0"/>
<feBlend mode="plus-lighter" in2="effect1_dropShadow_638_188" result="effect2_dropShadow_638_188"/>
<feBlend mode="normal" in="SourceGraphic" in2="effect2_dropShadow_638_188" result="shape"/>
</filter>
<filter id="filter1_d_638_188" x="8" y="12" width="73" height="33" filterUnits="userSpaceOnUse" color-interpolation-filters="sRGB">
<feFlood flood-opacity="0" result="BackgroundImageFix"/>
<feColorMatrix in="SourceAlpha" type="matrix" values="0 0 0 0 0 0 0 0 0 0 0 0 0 0 0 0 0 0 127 0" result="hardAlpha"/>
<feOffset dy="4"/>
<feGaussianBlur stdDeviation="2"/>
<feComposite in2="hardAlpha" operator="out"/>
<feColorMatrix type="matrix" values="0 0 0 0 0 0 0 0 0 0 0 0 0 0 0 0 0 0 0.25 0"/>
<feBlend mode="normal" in2="BackgroundImageFix" result="effect1_dropShadow_638_188"/>
<feBlend mode="normal" in="SourceGraphic" in2="effect1_dropShadow_638_188" result="shape"/>
</filter>
<linearGradient id="paint0_linear_638_188" x1="36.1429" y1="-4.5" x2="30.774" y2="31.8929" gradientUnits="userSpaceOnUse">
<stop stop-color="#701904"/>
<stop offset="0.25" stop-color="#97480D"/>
<stop offset="0.480769" stop-color="#FFD141"/>
<stop offset="0.783654" stop-color="#DC7C11"/>
<stop offset="1" stop-color="#A5500E"/>
</linearGradient>
</defs>
</svg>
