<svg width="32" height="32" viewBox="0 0 32 32" xmlns="http://www.w3.org/2000/svg">
  <defs>
    <radialGradient id="bonkGrad" cx="0.3" cy="0.3" r="0.8">
      <stop offset="0%" stop-color="#ff6b9d"/>
      <stop offset="100%" stop-color="#e84393"/>
    </radialGradient>
  </defs>
  <!-- Outer circle -->
  <circle cx="16" cy="16" r="14" fill="url(#bonkGrad)" stroke="#d63384" stroke-width="2"/>
  <!-- Inner circle -->
  <circle cx="16" cy="16" r="11" fill="#fd79a8"/>
  <!-- BONK text styling -->
  <text x="16" y="18" text-anchor="middle" font-family="Arial, sans-serif" font-size="7" font-weight="bold" fill="white">BONK</text>
  <!-- Decorative stars -->
  <path d="M8 8 L9 10 L11 9 L10 11 L12 12 L10 11 L9 13 L8 11 L6 12 L8 10 L6 9 L8 8 Z" fill="white" opacity="0.8"/>
  <path d="M24 8 L24.5 9 L25.5 8.5 L25 9.5 L26 10 L25 9.5 L24.5 10.5 L24 9.5 L23 10 L24 9 L23 8.5 L24 8 Z" fill="white" opacity="0.8"/>
</svg>
