<svg width="330" height="112" viewBox="0 0 330 112" fill="none" xmlns="http://www.w3.org/2000/svg">
<g filter="url(#filter0_di_1576_6929)">
<rect width="330" height="100" rx="25" fill="url(#paint0_linear_1576_6929)"/>
<rect x="0.5" y="0.5" width="329" height="99" rx="24.5" stroke="#3CABFF"/>
</g>
<path d="M78.7836 51.468V52.116C78.8916 53.772 79.9716 54.744 81.5196 54.744C83.1396 54.744 84.2556 53.664 84.2556 51.828V36.6H90.3756V51.828C90.3756 57.084 86.5236 60.432 81.3396 60.432C76.6596 60.432 73.3476 57.624 72.5556 53.34V51.468H78.7836ZM107.448 60.432C99.9963 60.432 94.5243 55.644 94.5243 48.156C94.5243 40.668 99.9963 35.916 107.448 35.916C114.864 35.916 120.372 40.668 120.372 48.156H114.144C114.144 44.052 111.48 41.604 107.448 41.604C103.416 41.604 100.752 44.052 100.752 48.156C100.752 52.296 103.416 54.744 107.448 54.744C111.48 54.744 114.144 52.296 114.144 48.156H120.372C120.372 55.644 114.864 60.432 107.448 60.432ZM125.147 60V36.6H131.267V60H125.147ZM153.792 60L144 44.196H143.604V60H137.484V36.6H146.16L155.916 52.404H156.312V36.6H162.432V60H153.792ZM177.562 60V36.6H195.562V41.928H183.682V45.888H195.094V51.216H183.682V60H177.562ZM200.414 60V36.6H206.534V54.672H218.306V60H200.414ZM222.248 60V36.6H228.368V60H222.248ZM247.257 52.548H240.705V60H234.585V36.6H247.257C252.081 36.6 255.645 39.696 255.645 44.556C255.645 49.416 252.081 52.548 247.257 52.548ZM247.257 42.288H240.705V46.86H247.257C248.625 46.86 249.525 46.032 249.525 44.556C249.525 43.116 248.625 42.288 247.257 42.288Z" fill="white"/>
<defs>
<filter id="filter0_di_1576_6929" x="0" y="0" width="330" height="112" filterUnits="userSpaceOnUse" color-interpolation-filters="sRGB">
<feFlood flood-opacity="0" result="BackgroundImageFix"/>
<feColorMatrix in="SourceAlpha" type="matrix" values="0 0 0 0 0 0 0 0 0 0 0 0 0 0 0 0 0 0 127 0" result="hardAlpha"/>
<feOffset dy="12"/>
<feComposite in2="hardAlpha" operator="out"/>
<feColorMatrix type="matrix" values="0 0 0 0 0.0219924 0 0 0 0 0.00923056 0 0 0 0 0.0675706 0 0 0 1 0"/>
<feBlend mode="normal" in2="BackgroundImageFix" result="effect1_dropShadow_1576_6929"/>
<feBlend mode="normal" in="SourceGraphic" in2="effect1_dropShadow_1576_6929" result="shape"/>
<feColorMatrix in="SourceAlpha" type="matrix" values="0 0 0 0 0 0 0 0 0 0 0 0 0 0 0 0 0 0 127 0" result="hardAlpha"/>
<feOffset/>
<feGaussianBlur stdDeviation="9"/>
<feComposite in2="hardAlpha" operator="arithmetic" k2="-1" k3="1"/>
<feColorMatrix type="matrix" values="0 0 0 0 0 0 0 0 0 0.9 0 0 0 0 1 0 0 0 1 0"/>
<feBlend mode="normal" in2="shape" result="effect2_innerShadow_1576_6929"/>
</filter>
<linearGradient id="paint0_linear_1576_6929" x1="165" y1="100" x2="165" y2="-39" gradientUnits="userSpaceOnUse">
<stop stop-color="#14073F"/>
<stop offset="1" stop-color="#3A1CFF"/>
</linearGradient>
</defs>
</svg>
